<?xml version="1.0" encoding="UTF-8"?>
<svg id="a" xmlns="http://www.w3.org/2000/svg" viewBox="0 0 150 150" width="44">
    <path d="M142,0H5C2.24,0,0,2.24,0,5V145c0,2.76,2.24,5,5,5H145c2.76,0,5-2.24,5-5V5c0-2.76-2.24-5-5-5h-3ZM21,16h108c2.76,0,5,2.24,5,5v108c0,2.76-2.24,5-5,5H21c-2.76,0-5-2.24-5-5V21c0-2.76,2.24-5,5-5Z"
          style="fill:#001f5c;"/>
    <g>
        <path d="M68.91,25.64v51h-11.25v-21.08h-17.55v21.08h-11.25V25.64h11.25v20.17h17.55V25.64h11.25Z"
              style="fill:#001f5c;"/>
        <path d="M98.19,57.81h-6.07v18.83h-11.25V25.64h20.85c12.52,0,17.48,4.72,17.48,16.12,0,8.32-2.7,13.12-9.08,15l11.02,19.88h-12.83l-10.12-18.83Zm-6.07-9.6h8.4c5.48,0,7.42-1.88,7.42-6.45s-1.95-6.52-7.42-6.52h-8.4v12.97Z"
              style="fill:#001f5c;"/>
    </g>
    <g>
        <path d="M38.34,108.13c2.64,0,4.76,2.12,4.76,4.76s-2.12,4.72-4.76,4.72-4.72-2.12-4.72-4.72,2.12-4.76,4.72-4.76Z"
              style="fill:#001f5c;"/>
        <path d="M51.98,105.1h4.8v2.12l.08,.04c1.64-1.48,3.88-2.6,6.48-2.6,2.12,0,3.96,.72,5.2,2.08,1.16,1.24,1.68,2.88,1.68,5.8v12.24h-4.84v-11.4c0-1.76-.24-2.72-.8-3.36-.6-.72-1.48-1.08-2.6-1.08-1.92,0-3.92,1.12-5.16,2.48v13.36h-4.84v-19.68Z"
              style="fill:#001f5c;"/>
        <path d="M82.7,116.25c.6,3.28,3.2,4.96,6.52,4.96,2.48,0,4.8-.92,6.72-2.28v4.44c-1.84,1.16-4.64,1.84-7.2,1.84-6.32,0-10.96-4.08-10.96-10.24s4.68-10.32,10.04-10.32c4.88,0,9.2,3.32,9.2,9.64,0,.64-.04,1.44-.12,1.96h-14.2Zm9.8-3.36c-.36-2.96-2.52-4.32-4.72-4.32s-4.48,1.36-5.08,4.32h9.8Z"
              style="fill:#001f5c;"/>
        <path d="M116.38,124.29c-.88,.52-2.48,.92-4,.92-1.72,0-3.56-.52-4.8-1.92-1-1.08-1.6-2.72-1.6-5.64v-8.44h-3.44v-4.12h3.44v-5.24l4.84-.84v6.08h5.56v4.12h-5.56v7.76c0,2.2,.4,4.04,2.6,4.04,1.04,0,2.16-.4,2.96-.84v4.12Z"
              style="fill:#001f5c;"/>
    </g>
    <rect x="29" y="85.01" width="92.14" height="7" style="fill:#001f5c;"/>
</svg>